<?xml version="1.0" standalone="no"?>
<!DOCTYPE svg PUBLIC "-//W3C//DTD SVG 20010904//EN"
 "http://www.w3.org/TR/2001/REC-SVG-20010904/DTD/svg10.dtd">
<svg version="1.0" xmlns="http://www.w3.org/2000/svg"
 width="1226.000000pt" height="1226.000000pt" viewBox="0 0 1226.000000 1226.000000"
 preserveAspectRatio="xMidYMid meet">
<metadata>
Created by potrace 1.11, written by Peter Selinger 2001-2013
</metadata>
<g transform="translate(0.000000,1226.000000) scale(0.100000,-0.100000)"
fill="#000000" stroke="none">
<path d="M6728 12214 c-2 -1 -26 -5 -54 -8 -97 -9 -266 -79 -359 -148 -44 -33
-158 -134 -194 -173 -197 -211 -366 -570 -437 -925 -26 -130 -40 -219 -49
-306 -3 -28 -8 -62 -10 -75 -24 -120 -24 -707 0 -899 2 -19 6 -57 9 -85 8 -85
16 -147 26 -215 5 -36 11 -81 14 -100 3 -19 7 -46 10 -60 3 -14 7 -45 10 -70
3 -25 20 -117 37 -205 17 -88 33 -173 35 -190 3 -16 9 -46 14 -65 5 -19 12
-51 15 -70 3 -19 10 -51 15 -70 5 -19 11 -46 14 -60 2 -14 5 -25 6 -25 1 0 3
-9 5 -20 3 -19 32 -154 40 -185 3 -8 13 -55 25 -105 11 -49 22 -97 25 -105 2
-8 11 -46 20 -85 9 -38 21 -88 26 -110 5 -22 12 -51 15 -65 2 -14 8 -34 11
-45 7 -21 8 -25 16 -65 3 -14 8 -32 11 -40 3 -8 8 -26 10 -40 3 -14 28 -115
56 -225 28 -110 53 -208 55 -218 2 -9 6 -21 9 -25 3 -5 8 -24 11 -42 3 -18 15
-65 26 -104 11 -39 22 -79 24 -90 3 -10 12 -44 21 -75 9 -31 18 -66 20 -78 2
-12 9 -35 15 -50 6 -16 10 -29 10 -30 -1 -2 -1 -4 0 -5 0 -2 2 -10 4 -18 1 -8
15 -58 31 -110 21 -74 27 -116 28 -190 0 -52 -3 -106 -7 -120 -9 -35 -21 -84
-21 -92 -1 -3 -4 -10 -8 -14 -5 -4 -8 -13 -8 -21 0 -12 -93 -256 -126 -330 -8
-17 -14 -34 -14 -37 0 -3 -9 -25 -19 -49 -11 -23 -32 -71 -46 -107 -14 -36
-32 -78 -39 -95 -8 -16 -30 -70 -51 -120 -84 -201 -262 -603 -356 -802 -22
-48 -50 -108 -61 -133 -37 -80 -426 -862 -486 -975 -32 -60 -83 -157 -114
-215 -30 -58 -65 -122 -76 -142 -12 -21 -38 -68 -58 -105 -21 -37 -66 -120
-102 -183 -35 -63 -77 -137 -92 -165 -74 -132 -220 -381 -229 -392 -6 -7 -11
-14 -11 -16 0 -4 -115 -198 -140 -237 -5 -8 -22 -36 -37 -62 -16 -27 -31 -48
-35 -48 -5 0 -8 -7 -8 -15 0 -8 -4 -15 -10 -15 -5 0 -10 -5 -10 -11 0 -25
-150 -211 -247 -306 -57 -57 -108 -103 -113 -103 -5 0 -15 -6 -22 -13 -32 -32
-171 -104 -190 -99 -5 1 -8 -2 -8 -7 0 -10 -120 -27 -155 -22 -56 7 -73 13
-109 38 -45 32 -72 79 -84 143 -9 55 3 181 24 252 3 10 8 30 10 45 7 37 35
135 42 148 4 6 8 18 9 28 2 14 55 158 107 295 7 18 18 38 24 44 7 7 12 17 12
23 0 7 25 60 55 118 58 112 64 140 40 187 -20 38 -92 80 -138 80 -40 0 -117
-27 -117 -41 0 -5 -5 -9 -10 -9 -10 0 -35 -24 -70 -67 -20 -24 -90 -131 -90
-137 0 -8 -74 -131 -83 -137 -5 -3 -8 -9 -7 -13 0 -3 -19 -43 -44 -89 -224
-413 -329 -753 -330 -1072 0 -110 14 -260 24 -260 1 0 3 -9 4 -20 6 -52 63
-208 107 -292 137 -264 341 -437 584 -498 78 -19 213 -26 277 -15 24 5 59 11
78 14 121 19 329 119 458 220 25 19 206 200 234 233 37 44 158 211 158 219 0
4 16 29 35 55 19 27 35 52 35 55 0 3 20 38 44 77 52 87 124 221 222 417 71
142 184 378 184 385 0 2 15 36 34 77 55 120 77 169 114 253 19 44 41 96 50
115 8 19 16 40 18 45 1 6 11 32 23 58 19 42 41 94 46 107 1 3 10 23 20 45 23
52 37 87 41 100 3 12 91 223 104 250 13 28 121 288 124 300 2 6 8 21 13 35 6
14 36 88 68 165 31 77 62 154 69 170 8 17 71 174 140 350 70 176 131 329 136
340 9 18 47 116 185 470 26 66 65 167 88 225 23 58 42 107 43 110 0 3 4 14 9
25 8 20 87 227 105 275 5 14 15 39 21 55 7 17 13 35 15 40 1 6 25 69 53 140
28 72 51 136 51 143 0 39 29 -13 115 -203 52 -116 99 -218 105 -227 5 -10 10
-25 10 -33 0 -8 3 -15 8 -15 4 0 16 -21 26 -48 11 -26 44 -99 75 -162 30 -63
55 -117 55 -120 2 -13 264 -540 336 -675 30 -55 65 -122 79 -150 14 -27 28
-52 31 -55 5 -5 20 -32 71 -130 13 -25 26 -47 29 -50 11 -10 80 -132 80 -141
0 -5 5 -9 11 -9 5 0 8 -4 5 -9 -3 -4 3 -16 14 -26 11 -10 20 -22 20 -27 0 -4
25 -47 55 -93 30 -47 55 -90 55 -95 0 -4 3 -10 8 -12 4 -1 38 -50 76 -108 75
-114 183 -267 203 -288 7 -7 13 -16 13 -20 0 -4 10 -19 23 -34 12 -15 33 -42
47 -60 46 -60 184 -233 194 -244 6 -6 31 -34 56 -63 141 -166 370 -395 413
-414 15 -6 27 -15 27 -18 0 -9 82 -29 118 -29 42 0 92 24 127 60 26 28 30 38
29 88 -1 53 -6 98 -19 162 -3 14 -7 41 -10 60 -3 19 -7 49 -10 65 -20 119 -29
180 -40 280 -2 22 -6 49 -9 60 -3 11 -8 47 -11 80 -4 33 -8 72 -11 86 -6 38
-14 110 -30 264 -3 28 -7 66 -10 85 -2 19 -6 60 -9 90 -2 30 -7 81 -10 113 -4
32 -8 84 -10 115 -3 31 -7 86 -10 122 -9 107 -14 179 -20 285 -3 55 -7 136
-10 180 -19 272 -25 1223 -11 1560 12 280 11 271 31 600 2 28 6 88 10 135 4
47 9 105 10 130 2 25 4 45 5 45 0 0 3 25 5 55 4 58 12 136 20 210 3 25 7 72
10 105 3 33 7 76 10 95 3 19 7 58 10 85 3 28 8 68 11 90 3 22 7 56 9 75 2 19
6 49 8 65 3 17 8 55 11 85 4 30 8 66 10 80 2 14 7 46 10 71 6 43 9 60 21 134
2 17 7 48 10 70 4 22 8 51 11 65 3 14 6 41 8 60 1 19 5 44 9 55 3 11 8 40 11
65 3 25 9 56 12 70 3 14 7 39 9 55 2 17 6 44 9 60 9 47 19 99 21 115 11 65 39
212 79 413 4 15 8 39 11 55 3 15 8 34 10 42 2 8 7 29 10 45 2 17 7 40 10 53 3
12 7 32 10 45 3 12 8 36 10 52 3 17 8 38 11 47 4 15 9 33 19 83 3 11 27 117
55 235 61 256 65 276 63 360 -1 84 -15 134 -50 184 -87 124 -228 137 -329 29
-48 -51 -100 -161 -129 -271 -23 -86 -80 -324 -91 -377 -7 -35 -14 -69 -19
-90 -9 -37 -85 -410 -90 -440 -3 -16 -10 -52 -15 -80 -5 -27 -12 -66 -15 -85
-3 -19 -8 -48 -11 -63 -3 -16 -7 -38 -9 -50 -1 -12 -6 -38 -10 -57 -3 -19 -8
-49 -9 -65 -2 -17 -6 -44 -10 -60 -6 -32 -9 -50 -25 -155 -15 -96 -21 -140
-25 -185 -3 -22 -9 -69 -15 -105 -5 -36 -13 -90 -16 -120 -3 -30 -8 -66 -10
-80 -8 -57 -18 -138 -21 -180 -1 -25 -4 -45 -4 -45 -1 0 -4 -16 -6 -35 -1 -19
-6 -55 -9 -80 -3 -25 -7 -68 -9 -95 -2 -28 -7 -73 -10 -100 -7 -58 -16 -160
-21 -225 -6 -78 -15 -183 -20 -235 -3 -27 -8 -93 -11 -145 -3 -52 -8 -115 -9
-140 -2 -25 -7 -94 -10 -155 -3 -60 -8 -130 -10 -155 -3 -25 -7 -103 -11 -175
-3 -71 -8 -164 -10 -205 -2 -41 -6 -138 -9 -215 -2 -77 -7 -192 -10 -255 -5
-133 -15 -460 -19 -673 -2 -81 -6 -150 -9 -153 -3 -3 -2 -18 2 -32 4 -15 5
-38 1 -52 -4 -14 -3 -35 1 -47 5 -13 5 -23 1 -23 -4 0 -8 -80 -9 -178 -3 -347
-10 -662 -15 -668 -3 -2 -21 19 -39 48 -19 29 -37 55 -41 56 -5 2 -8 7 -8 12
0 4 -26 48 -58 96 -32 49 -72 112 -90 139 -17 28 -36 55 -42 62 -5 7 -10 14
-10 16 0 2 -31 55 -70 118 -38 63 -86 143 -107 179 -21 36 -43 74 -50 85 -7
11 -15 26 -19 34 -4 8 -31 56 -59 105 -118 210 -315 591 -315 611 0 7 -3 15
-7 17 -9 3 -69 126 -99 200 -10 27 -22 48 -26 48 -5 0 -8 6 -8 13 0 8 -13 41
-30 75 -16 34 -30 64 -30 67 0 2 -12 30 -26 62 -26 60 -44 100 -62 143 -5 14
-17 41 -25 60 -93 214 -220 600 -203 618 3 2 1 12 -4 22 -28 53 -31 359 -5
480 3 14 8 43 10 65 5 41 12 80 15 80 1 0 3 16 5 35 3 28 25 173 50 330 2 14
7 50 10 80 6 53 9 72 19 135 3 17 8 57 12 90 3 33 8 69 10 80 2 11 7 40 10 65
3 25 7 56 9 70 2 14 7 52 10 85 4 33 9 74 11 90 2 17 6 46 8 65 5 43 15 133
21 180 3 19 7 62 11 95 3 33 7 71 9 85 3 24 6 60 21 210 4 36 8 76 9 90 5 40
15 150 20 210 3 30 7 78 10 105 8 80 14 154 21 245 3 47 7 105 9 130 6 72 18
242 19 275 1 17 5 35 9 42 4 6 3 14 -3 18 -6 4 -8 10 -6 14 16 25 59 980 59
1306 0 129 -8 259 -19 324 -13 78 -33 159 -49 201 -9 25 -19 54 -22 65 -4 11
-30 58 -59 105 -93 151 -223 252 -372 290 -41 11 -158 21 -164 14z m185 -767
c34 -26 71 -87 72 -119 0 -9 2 -19 5 -21 10 -11 -4 -655 -24 -1087 -3 -63 -8
-164 -11 -225 -3 -60 -7 -137 -9 -170 -5 -52 -16 -239 -20 -330 -1 -17 -5 -36
-10 -43 -4 -7 -2 -12 4 -12 6 0 9 -3 7 -7 -3 -5 -8 -44 -11 -88 -4 -44 -9
-105 -11 -135 -8 -91 -16 -192 -20 -254 -3 -33 -7 -87 -11 -120 -3 -34 -7 -81
-9 -106 -2 -25 -6 -67 -9 -95 -3 -27 -8 -79 -11 -115 -6 -68 -13 -138 -20
-205 -2 -22 -6 -62 -9 -90 -3 -27 -8 -70 -11 -95 -3 -25 -8 -70 -11 -100 -3
-30 -7 -67 -10 -82 -2 -15 -6 -49 -9 -75 -3 -26 -8 -70 -11 -98 -8 -66 -10
-87 -19 -169 -5 -44 -11 -63 -16 -55 -19 30 -130 439 -123 451 3 4 0 8 -5 8
-6 0 -10 3 -9 8 1 4 -4 34 -12 67 -8 33 -14 62 -15 65 0 3 -8 39 -17 80 -9 41
-24 113 -32 160 -9 47 -18 96 -21 110 -3 13 -7 40 -10 60 -3 20 -7 46 -10 59
-2 13 -7 42 -10 65 -3 22 -7 55 -9 71 -3 17 -7 50 -10 75 -3 25 -8 56 -10 70
-3 14 -7 54 -11 90 -3 36 -8 90 -11 120 -19 194 -27 427 -27 735 0 400 9 675
29 815 3 25 8 65 10 89 2 24 6 51 8 60 3 9 8 32 11 51 3 19 11 53 17 75 5 22
12 50 14 63 10 52 58 182 97 262 47 97 138 197 188 207 16 3 31 9 34 13 9 14
84 -7 118 -33z"/>
</g>
</svg>
